<svg xmlns="http://www.w3.org/2000/svg" width="682.667" height="682.667" version="1.0" viewBox="0 0 512 512" fill="currentColor">
  <path d="M327 105.6c-12.9 4.3-26.4 11.3-36.4 18.8-7.3 5.5-26.6 24.9-26.6 26.7 0 .5-5.1.9-11.2.9-35.5.1-70.1 9.5-100.9 27.5l-7.5 4.5-7.5-1.7c-9.4-2-33.5-2.3-43.9-.4-15.7 2.8-35.5 10.5-42.8 16.6-1.7 1.4-4.4 5.2-5.9 8.3-2.5 5.1-2.8 6.7-2.6 14.7.4 22.5 10.3 49.8 25.5 70.2l6 8.1.2 18.9c.2 17.5.5 19.6 3.4 30.7l3.1 11.9-3.4 7.2c-3 6.2-5.9 18.2-5.2 21.9.1.8-5 1.2-16.2 1.4-10.1.1-17 .7-17.8 1.3-1.6 1.4-1.7 6.1-.1 7.7.9.9 9 1.2 30.3 1.2h29.2l2.2 2.4c5 5.3 15.4 7.3 21 4.2 2.1-1.1 3-1.1 6 .1 2.4 1.1 4.9 1.3 8.1.8 5-.8 6.5-.8 16 .1 6 .5 6.9.3 11.2-2.5 2.7-1.7 4.8-3.5 4.8-4.1 0-.7 49.7-1 153.8-1 118.3 0 154.1-.3 155-1.2 1.5-1.5 1.5-6.1 0-7.6-.8-.8-5.2-1.2-13.3-1.2h-12.2l-2.3-9.7c-3.2-13.7-3.8-35.5-1.6-52.1 1-7.4 1.4-14.2 1-17-.9-6.1-3.9-12.6-7.3-15.5-1.5-1.3-3.1-4.2-3.9-7-1.8-6.8-4.8-10.5-11.5-13.5-4.3-2-5.9-3.3-6.3-5.2-4.2-20.6-10.7-35.5-22.1-50.7l-4.3-5.8.6-9.6c1.7-24.6-5.5-56.9-18.5-82.7-10.5-20.9-22.6-25.5-46.1-17.6zm26 8.4c4.5 2.3 6.6 5 11.9 15.6 11.1 22.4 18.2 54.9 16.5 76.1-.9 11.2-.2 13.9 5.9 22 6.2 8.2 12.6 20.2 15.6 29.3 2.6 8.3 5 18.7 4.4 19.4-.3.2-2.4-.9-4.8-2.6-8.9-6.3-21.4-4.3-27.4 4.3-2.3 3.3-3.1 3.8-6.5 3.9-9.5.1-17.1 7.2-18.3 17.1-.5 4-1.2 5.9-3 7.2-6.6 5.2-8 15.2-3.7 27 6 16.2 7.6 24.3 7.5 38.2 0 7.1-.4 14.6-.9 16.5l-.8 3.5-89.3.3-89.3.2.6-2.4c.9-3.6-1.1-12.4-4.2-18.6-1.5-3.1-5.8-8.6-9.7-12.5-18-18.1-42.9-22.1-62.9-10-3.2 1.9-6.1 3.3-6.4 3.1-.2-.3-1.4-4-2.5-8.3-1.6-6.4-2-11.4-2.1-27.5-.2-18.8-.3-19.9-2.4-22.5-10.2-12.7-17.9-25.9-22.7-38.8-3.4-8.8-6.6-24.8-6.7-33-.1-11.2 2.7-15 15.2-20.9 21-9.9 48.8-12.6 72.7-7.1l6.5 1.5 4.9-3c2.7-1.6 5.1-3 5.3-3 .2 0 2.7 4.7 5.5 10.5 6.9 13.7 10.5 16.5 17.5 13.4 5-2.3 5.5-8.9 2.1-28.8l-1.2-7.3 3.3-1.4c1.8-.8 3.5-1.4 3.7-1.4.3 0 1.5 4.4 2.7 9.7 3.9 16.8 13.9 40.7 18.3 43.8 2.9 2 8 1.9 10.6-.3 1.2-.9 2.6-3.5 3.1-5.7 1.5-6.3 1.2-30.1-.6-43.5-.8-6.7-1.4-12.4-1.2-12.6.3-.2 1.8-.7 3.5-1 3-.6 3.1-.5 8.7 11.2 6.8 14.1 9.6 18 13.5 18.9 4 .8 8.6-1.7 9.9-5.3.9-2.8.5-10.5-1.4-23l-.6-4.3 6.6.7c7.5.8 5.5 2.2 17.4-12.1 10.5-12.6 23.6-22.5 39.6-30.1 16.9-8 28.4-10.1 35.6-6.4zm46 171c3.9 4.4 7.1 5.1 10.3 2.2 1.2-1.1 3.5-1.7 6.3-1.7 6.1 0 9.5 3.5 10.2 10.4.4 4.5.9 5.5 4.2 8.1 6.7 5.3 7 8.3 4 37.7-1.4 12.7-.3 27.6 2.9 42l1.8 8.3h-78.8l.8-5.3c1.3-8.5.8-26.6-1-35.4-1-4.5-3.3-12.5-5.2-17.8-1.9-5.3-3.5-11.1-3.5-12.9 0-3.9 3.1-7.6 6.4-7.6 1.3 0 3.1-.9 4-1.9 1.7-1.9 1.7-2.2.1-6.3-1.9-5.2-1-8.8 3-11.4 2.3-1.5 3.2-1.5 8-.4 6.4 1.5 7.9.8 8.9-4.5.4-2 1.9-4.4 3.8-6 4.5-3.8 9.1-3 13.8 2.5zm-266.9 69c7.8 2.7 13.1 6.1 19 12.3 6.4 6.6 9.9 13.7 9.9 19.9 0 7.8-4.3 13.8-9.8 13.8-2 0-2.3-.3-1.6-1.8.5-.9.9-4.7.9-8.3 0-7.4-1.9-10.9-6-10.9-3.7 0-4.7 2.3-4 8.4.6 4.4.4 6.1-.9 8.1-2 3-6 4.8-8.8 4-1.6-.6-1.8-1.3-1.2-5.4.9-6.6-1.8-15.8-5-17.2-1.7-.8-3-.8-4.6.1-2.1 1.1-2.2 1.6-1.5 6.9 1.2 8.1 1 10.7-.9 13.6-1.9 3-6.8 3.4-10.4.9-2.4-1.6-6.2-8.3-6.2-10.9 0-1.9-3.5-5.5-5.5-5.5-2.5 0-5.5 3.8-5.5 7 0 2.8-.2 3-4.1 3h-4.1l.4-6.3c.9-14.1 11.8-28.1 25.1-32.3 6.5-2 17.8-1.7 24.8.6z"/>
  <path d="M307 158.7c-1.9.7-4 3.3-4 5 0 3.2 3.9 5.3 9.8 5.3 15 0 29.5 9.5 37.2 24.3 3.2 6.3 5 7.5 8.4 5.9 1.9-.8 2.6-1.9 2.6-4 0-7.1-10.9-21.7-21-28.2-8.8-5.7-27.5-10.4-33-8.3zM115 217.7c-3.1 1.6-8.8 6.1-13.1 10.3-8.9 8.8-13.1 16.6-15.6 28.7-2.1 10.2-1.3 13.6 3.3 14.1 4 .4 4.9-.9 6.3-9.7 2.4-14.8 11.8-28.2 24.3-34.5 6.4-3.2 7.7-5.5 5.4-9.1-2.1-3.2-3.9-3.1-10.6.2zM288 232.5c-7.6 2.5-14.1 8.2-18 15.9-3 5.9-3.4 7.7-3.4 13.9.1 27.6 33.5 41.5 53 22 5.9-5.9 8.9-13.4 8.8-22.3 0-8.8-2.2-14.6-7.9-20.8-7.5-8.4-21.8-12.2-32.5-8.7zm20 12.5c1.1 1.1 2 3.3 2 5 0 1.7-.9 3.9-2 5s-3.3 2-5 2c-1.7 0-3.9-.9-5-2s-2-3.3-2-5c0-1.7.9-3.9 2-5s3.3-2 5-2c1.7 0 3.9.9 5 2zM140.3 265.1c-6.1 2.4-13.2 8.9-16.4 15-3.4 6.6-3.8 17.6-.9 25.2 9.4 25 45.1 26.4 57 2.2 3.6-7.2 3.6-19.8 0-27-7.1-14.6-24.4-21.3-39.7-15.4zm20.1 10c1.3.7 3 2.4 3.6 4 2.4 5.8-3.7 11.7-9.5 9.1-5.3-2.5-5.8-9.9-.7-12.6 3.3-1.9 3.5-1.9 6.6-.5zM220.5 280.8c-14.6 4.6-18.5 7.6-18.5 14.1 0 3.3.7 4.9 3.6 8.1 3.4 3.8 14.1 10 17.2 10 2.7 0 1 9.6-2.4 13.1-4.3 4.5-9.1 5.4-16 3-6.1-2.2-8.8-1.7-9.9 1.8-.9 2.9.4 5 4.5 7.1 11.5 5.9 26.7 1.5 32.1-9.2 1.2-2.4 2.2-4.4 2.3-4.5.1-.1 2 .7 4.3 1.8 5.5 2.7 13.2 3.5 19 1.8 11.6-3.2 20.7-20.5 14.3-26.9-2.3-2.3-3.3-2.4-6.1-1-1.3.8-1.9 2.1-1.9 4.8 0 5-2.9 10.2-7.1 12.4-5.6 3-12 1.9-18.1-3.2l-3.8-3.1 3.5-4.6c8.1-10.6 8.5-24.7.9-27.9-4.4-1.8-4-1.9-17.9 2.4z"/>
</svg>
